<svg xmlns="http://www.w3.org/2000/svg" viewBox="0 0 256 256" role="img" aria-labelledby="title">
  <title>iOS icon</title>
  <rect x="14" y="14" width="228" height="228" rx="42" fill="#76777E"/>
  <g fill="#F4F4F5" transform="translate(56 48)">
    <path d="M82.1 34.5c-5.5 0-14-6.3-22.8-6.1-11.8.2-22.6 6.8-28.7 17.4-12.2 21.2-3.2 52.5 8.7 69.7 5.8 8.4 12.7 17.8 21.8 17.5 8.8-.4 12.1-5.7 22.7-5.7 10.6 0 13.6 5.7 22.9 5.5 9.5-.2 15.5-8.5 21.3-17 6.7-9.8 9.4-19.2 9.6-19.7-.2-.1-18.4-7-18.6-28-.1-17.6 14.3-26 15-26.4-8.3-12.1-20.9-13.5-25.4-13.8-11.6-.9-21.3 6.3-26.7 6.3z"/>
    <path d="M101.7 16.8C106.6 10.9 109.8 2.7 108.9-5c-7 .3-15.4 4.7-20.4 10.5-4.5 5.2-8.4 13.5-7.4 21.5 7.7.6 15.7-4 20.6-9.8z"/>
  </g>
</svg>
